<svg preserveAspectRatio="none" width="100%" height="100%" overflow="visible" style="display: block;" viewBox="0 0 63.9935 30.6587" fill="none" xmlns="http://www.w3.org/2000/svg">
<g id="Frame">
<path id="Vector" d="M5.10239 26.6975C11.1877 32.1497 20.5949 31.9734 26.4656 26.1688C32.5198 20.1822 32.5198 10.4764 26.4656 4.4898C20.4111 -1.4966 10.5951 -1.4966 4.54078 4.4898C-1.14364 10.1105 -1.49098 19.0099 3.4987 25.0314L8.47702 20.109C6.18611 16.8242 6.51835 12.2901 9.47392 9.36773C12.8038 6.07512 18.2027 6.07512 21.5326 9.36773C24.8623 12.6603 24.8623 17.9986 21.5326 21.2912C18.9761 23.8189 15.2003 24.4062 12.0773 23.0526L20.4363 14.7873L18.7919 13.1616L5.10239 26.6975Z" fill="var(--fill-0, white)"/>
<path id="Vector_2" d="M63.9935 16.0959C63.5898 24.2058 56.8115 30.6587 48.5093 30.6587C39.9473 30.6587 33.0063 23.7954 33.0063 15.3293C33.0063 6.86306 39.9473 0 48.5093 0C56.5484 0 63.1583 6.05007 63.9361 13.7965H56.8957C56.1666 9.87191 52.6892 6.89829 48.5096 6.89829C43.8002 6.89829 39.9827 10.673 39.9827 15.3293C39.9827 19.9858 43.8002 23.7605 48.5096 23.7605C52.1249 23.7605 55.2143 21.5357 56.4549 18.3953H44.6337V16.0959H63.9935Z" fill="var(--fill-0, white)"/>
</g>
</svg>
