<svg preserveAspectRatio="none" width="100%" height="100%" overflow="visible" style="display: block;" viewBox="0 0 48 48" fill="none" xmlns="http://www.w3.org/2000/svg">
<g id="SVG">
<path id="Vector" d="M24 30C27.3137 30 30 27.3137 30 24C30 20.6863 27.3137 18 24 18C20.6863 18 18 20.6863 18 24C18 27.3137 20.6863 30 24 30Z" stroke="var(--stroke-0, #B75FFF)" stroke-width="2"/>
<path id="Vector_2" d="M10 14C12.2091 14 14 12.2091 14 10C14 7.79086 12.2091 6 10 6C7.79086 6 6 7.79086 6 10C6 12.2091 7.79086 14 10 14Z" stroke="var(--stroke-0, #B75FFF)" stroke-width="2"/>
<path id="Vector_3" d="M38.0011 14C40.2103 14 42.0011 12.2091 42.0011 10C42.0011 7.79086 40.2103 6 38.0011 6C35.792 6 34.0011 7.79086 34.0011 10C34.0011 12.2091 35.792 14 38.0011 14Z" stroke="var(--stroke-0, #B75FFF)" stroke-width="2"/>
<path id="Vector_4" d="M10 42.0003C12.2091 42.0003 14 40.2094 14 38.0003C14 35.7911 12.2091 34.0003 10 34.0003C7.79086 34.0003 6 35.7911 6 38.0003C6 40.2094 7.79086 42.0003 10 42.0003Z" stroke="var(--stroke-0, #B75FFF)" stroke-width="2"/>
<path id="Vector_5" d="M38.0011 42.0003C40.2103 42.0003 42.0011 40.2094 42.0011 38.0003C42.0011 35.7911 40.2103 34.0003 38.0011 34.0003C35.792 34.0003 34.0011 35.7911 34.0011 38.0003C34.0011 40.2094 35.792 42.0003 38.0011 42.0003Z" stroke="var(--stroke-0, #B75FFF)" stroke-width="2"/>
<path id="Vector_6" d="M24.0011 18.0003V10.0003M24.0011 38.0003V30.0003M18.0011 24.0003H10.0011M38.0011 24.0003H30.0011" stroke="var(--stroke-0, #B75FFF)" stroke-width="2"/>
</g>
</svg>
