<svg preserveAspectRatio="none" width="100%" height="100%" overflow="visible" style="display: block;" viewBox="0 0 48 48" fill="none" xmlns="http://www.w3.org/2000/svg">
<g id="SVG">
<path id="Vector" d="M17.9989 7.99972H9.99888C8.89431 7.99972 7.99888 8.89515 7.99888 9.99972V17.9997C7.99888 19.1043 8.89431 19.9997 9.99888 19.9997H17.9989C19.1035 19.9997 19.9989 19.1043 19.9989 17.9997V9.99972C19.9989 8.89515 19.1035 7.99972 17.9989 7.99972Z" stroke="var(--stroke-0, #B75FFF)" stroke-width="2"/>
<path id="Vector_2" d="M38.0011 7.99972H30.0011C28.8965 7.99972 28.0011 8.89515 28.0011 9.99972V17.9997C28.0011 19.1043 28.8965 19.9997 30.0011 19.9997H38.0011C39.1057 19.9997 40.0011 19.1043 40.0011 17.9997V9.99972C40.0011 8.89515 39.1057 7.99972 38.0011 7.99972Z" stroke="var(--stroke-0, #B75FFF)" stroke-width="2"/>
<path id="Vector_3" d="M17.9989 28.0003H9.99888C8.89431 28.0003 7.99888 28.8957 7.99888 30.0003V38.0003C7.99888 39.1048 8.89431 40.0003 9.99888 40.0003H17.9989C19.1035 40.0003 19.9989 39.1048 19.9989 38.0003V30.0003C19.9989 28.8957 19.1035 28.0003 17.9989 28.0003Z" stroke="var(--stroke-0, #B75FFF)" stroke-width="2"/>
<path id="Vector_4" d="M38.0011 28.0003H30.0011C28.8965 28.0003 28.0011 28.8957 28.0011 30.0003V38.0003C28.0011 39.1048 28.8965 40.0003 30.0011 40.0003H38.0011C39.1057 40.0003 40.0011 39.1048 40.0011 38.0003V30.0003C40.0011 28.8957 39.1057 28.0003 38.0011 28.0003Z" stroke="var(--stroke-0, #B75FFF)" stroke-width="2"/>
</g>
</svg>
